<svg xmlns="http://www.w3.org/2000/svg" width="512" height="512" viewBox="0 0 135.46666 135.46667">
  <defs>
    <filter id="c" color-interpolation-filters="sRGB">
      <feColorMatrix type="hueRotate" values="42"/>
      <feColorMatrix type="saturate" values="0.838906"/>
    </filter>
  </defs>
  <g transform="matrix(0.99420803,0,0,1.0303292,-2.3819975,-2.1208949)">
    <path style="fill:#008585;stroke:#b3b3b3;stroke-width:0.288937;filter:url(#c)"
      d="M 22.232824,5.3362538 5.4720567,41.594487 7.202869,114.50331 18.724756,130.48565 42.501659,103.1945 Z"/>
    <path style="fill:#007070;stroke:#b3b3b3;stroke-width:0.288937;filter:url(#c)"
      d="m 22.232824,5.3362538 79.347356,6.0429922 33.88649,53.23343 -42.996693,2.463622 z"/>
    <path style="fill:#009999;stroke:#b3b3b3;stroke-width:0.288937;filter:url(#c)"
      d="M 22.232824,5.3362538 42.501659,103.1945 92.469977,67.076298 Z"/>
    <path style="fill:#00b2b2;stroke:#b3b3b3;stroke-width:0.288937;filter:url(#c)"
      d="M 18.724756,130.48565 103.87514,126.03626 135.46667,64.612676 92.469977,67.076298 42.501659,103.1945 Z"/>
    <path style="fill:#00dada;stroke:#808080;stroke-width:0.264583;filter:url(#c)"
      d="m 14.64017,37.357674 -0.504834,70.171846 11.106336,-1.00966 1.009667,-41.901179 11.991858,18.015897 9.715979,-23.064231 3.533836,47.454343 18.931252,2.27175 L 52.339245,31.800478 32.367241,54.265377 Z"/>
    <path style="fill:#00dada;stroke:#808080;stroke-width:0.264583;filter:url(#c)"
      d="m 93.899178,34.833533 -18.174084,0.504878 0.504878,72.948519 13.377995,-0.50488 29.520163,-42.233079 z M 86.074333,51.99786 98.77795,66.714791 86.578695,85.569454 Z"/>
  </g>
</svg>
